<svg version="1.1" xmlns="http://www.w3.org/2000/svg"  viewBox="0 0 640 631" width="640" height="631"><path d="M0 0 C1.33779007 -0.0051059 1.33779007 -0.0051059 2.7026062 -0.01031494 C20.37291646 -0.04891193 37.90771872 1.07973677 55.25 4.625 C56.33692139 4.8408374 57.42384277 5.0566748 58.54370117 5.27905273 C68.18241908 7.23628596 77.67120993 9.60874411 87.125 12.3125 C88.78402344 12.76882812 88.78402344 12.76882812 90.4765625 13.234375 C139.03767845 27.24948188 190.64748627 57.87875324 215.67602539 103.21508789 C220.36286297 112.02097262 224.08091 120.50086802 226.125 130.3125 C226.29789551 131.07522217 226.47079102 131.83794434 226.64892578 132.6237793 C231.19027202 158.2719055 225.15525096 185.5936566 210.4375 206.8125 C197.35693558 224.17893117 178.82895291 236.159177 157.125 239.3125 C131.45770169 241.07683205 108.6680997 237.91455956 88.75 220.6640625 C87.88375 219.88804687 87.0175 219.11203125 86.125 218.3125 C59.21622368 194.61782751 26.55082525 183.59058934 -9.29882812 185.13964844 C-15.9530731 185.58612356 -22.38689205 186.819244 -28.875 188.3125 C-30.12410156 188.57933594 -31.37320313 188.84617188 -32.66015625 189.12109375 C-43.4596859 191.67618752 -53.12400211 196.23713724 -62.91064453 201.3828125 C-72.93665196 206.58987575 -84.93761969 208.92301271 -96.04150391 205.6796875 C-105.53929062 201.99070506 -113.89340342 195.81189782 -121.98095703 189.72802734 C-125.51658721 187.08564738 -129.10652127 184.51788305 -132.6875 181.9375 C-133.44716064 181.38819824 -134.20682129 180.83889648 -134.98950195 180.27294922 C-142.90457453 174.55292533 -150.88677245 168.92965063 -158.875 163.3125 C-163.92287115 159.76087077 -168.96741605 156.20467454 -174.00341797 152.63623047 C-175.67748504 151.45219816 -177.35602746 150.2744993 -179.03515625 149.09765625 C-190.94451617 140.63882818 -201.73177594 131.79808444 -205.4375 117.078125 C-207.8390451 101.89692918 -205.28523289 88.26148268 -196.43359375 75.6875 C-167.60955902 36.77230797 -106.80451286 14.50484551 -61.37670898 5.79492188 C-59.71759306 5.47498306 -58.06074035 5.14306055 -56.40649414 4.79882812 C-37.70666923 0.9083474 -19.0399493 0.01698978 0 0 Z " transform="translate(319.875,13.6875)" style="fill: #17B2F7;"></path><path d="M0 0 C12.95354591 -0.64352552 25.619478 4.98058757 35.34375 13.3046875 C46.04440663 24.20689759 51.06931102 38.47366863 53.875 53.19140625 C54.04942627 53.98071533 54.22385254 54.77002441 54.40356445 55.58325195 C56.46503136 65.92379131 56.31484356 76.37774566 56.3125 86.87890625 C56.3135675 87.89318695 56.31463501 88.90746765 56.31573486 89.95248413 C56.28770973 108.47909906 54.6008399 126.05251434 50.875 144.19140625 C50.65569824 145.30128906 50.43639648 146.41117188 50.21044922 147.5546875 C40.055998 197.87817012 14.98123207 246.8739056 -19.125 285.19140625 C-19.97191406 286.14917969 -20.81882812 287.10695313 -21.69140625 288.09375 C-32.670981 300.28418695 -44.09216873 312.18745343 -57.125 322.19140625 C-58.38745946 323.19307756 -59.64911827 324.19575847 -60.91015625 325.19921875 C-82.91567804 342.55217419 -106.65848751 355.97273336 -133.125 365.19140625 C-134.20974609 365.57619141 -134.20974609 365.57619141 -135.31640625 365.96875 C-164.08508761 376.06781272 -196.84425131 377.42475231 -224.88720703 364.38989258 C-248.95619364 352.59765031 -264.1408779 334.11633723 -273.30078125 309.08203125 C-275.50096344 301.36575246 -276.48914573 293.95921805 -276.4375 285.94140625 C-276.43258545 285.02681641 -276.4276709 284.11222656 -276.42260742 283.16992188 C-275.9954735 258.26910972 -264.51356951 238.57997576 -247.32421875 221.390625 C-237.8240536 212.6448154 -226.12586523 207.69788687 -214.29345703 203.05029297 C-203.970234 198.96145052 -194.23004336 194.63745465 -185.125 188.19140625 C-184.12726563 187.49015625 -183.12953125 186.78890625 -182.1015625 186.06640625 C-176.1572116 181.75413154 -170.87964238 177.21423737 -165.8671875 171.84375 C-164.125 170.19140625 -164.125 170.19140625 -162.125 170.19140625 C-161.87105469 169.62550781 -161.61710937 169.05960938 -161.35546875 168.4765625 C-159.96848601 165.90073741 -158.31698638 163.87025838 -156.4375 161.62890625 C-144.73575617 147.14404496 -137.05775059 131.03967939 -132.125 113.19140625 C-131.82851563 112.258125 -131.53203125 111.32484375 -131.2265625 110.36328125 C-128.8715727 102.38895934 -128.44633062 94.26118215 -128.03442383 85.99414062 C-127.30076647 74.21726172 -122.70247049 63.07695498 -114.45703125 54.4453125 C-110.5672965 51.27685307 -106.13397226 49.13822416 -101.65625 46.921875 C-100.21878789 46.208014 -98.78137329 45.49405732 -97.34399414 44.7800293 C-96.52794708 44.37553558 -95.71190002 43.97104187 -94.87112427 43.55429077 C-86.20706163 39.25436997 -77.55682153 34.92650696 -68.90287685 30.60625935 C-65.65510463 28.98496841 -62.40694719 27.36445844 -59.15795898 25.74560547 C-55.34248263 23.84433105 -51.52811662 21.94084622 -47.71484375 20.03515625 C-47.1045463 19.73021807 -46.49424885 19.42527988 -45.86545753 19.11110115 C-37.83094335 15.09281362 -29.85245789 10.99882385 -21.98095703 6.66967773 C-14.95184163 3.03133838 -7.86959344 0.70884206 0 0 Z " transform="translate(575.125,246.80859375)" style="fill: #4A71FC;"></path><path d="M0 0 C2.51781102 2.22744131 4.95979079 4.51403779 7.38671875 6.83984375 C8.09828125 7.48824219 8.80984375 8.13664062 9.54296875 8.8046875 C14.92039294 13.86153447 18.73447844 19.44627483 22.38671875 25.83984375 C22.92425781 26.77828125 23.46179688 27.71671875 24.015625 28.68359375 C28.19380502 36.47448582 30.4348914 44.26181279 32.38671875 52.83984375 C32.58136719 53.65324219 32.77601563 54.46664062 32.9765625 55.3046875 C34.52091508 64.85025725 33.59709938 74.64625428 31.88671875 84.08984375 C25.94458626 117.9233362 33.80664946 153.26827534 52.41796875 181.97265625 C56.90860379 188.37002918 62.01080147 194.17686293 67.38671875 199.83984375 C68.70542969 201.23783203 68.70542969 201.23783203 70.05078125 202.6640625 C75.75492146 208.55298472 81.55435875 213.34431853 88.38671875 217.83984375 C99.22044852 225.25473257 107.70751598 232.40700846 110.38671875 245.83984375 C110.89073137 257.02611363 110.02606061 268.08630307 108.9609375 279.2109375 C108.81074144 280.82882161 108.66099672 282.44674767 108.51167297 284.06471252 C108.19948591 287.42910771 107.88209581 290.79295783 107.56079102 294.15649414 C107.15433621 298.41553078 106.76078957 302.6756418 106.3711729 306.93624783 C106.06486683 310.27009346 105.75171131 313.60327029 105.43662453 316.93629646 C105.28912504 318.50460031 105.14359275 320.07309075 105.00028038 321.64178276 C103.26858206 340.4971626 101.43138285 357.96623458 90.38671875 373.83984375 C89.27296875 375.44859375 89.27296875 375.44859375 88.13671875 377.08984375 C76.76076213 388.46580037 62.23290837 392.15234375 46.6171875 392.15234375 C31.64009398 391.8887469 18.65226669 386.32885465 5.38671875 379.83984375 C4.73848145 379.5253125 4.09024414 379.21078125 3.42236328 378.88671875 C-15.75896114 369.45835621 -33.50679609 356.65786531 -49.1328125 342.13671875 C-51.2548198 340.17177341 -53.41237036 338.27735911 -55.61328125 336.40234375 C-63.5320633 329.50796266 -70.90203765 321.90915825 -77.61328125 313.83984375 C-78.06396973 313.30294922 -78.5146582 312.76605469 -78.97900391 312.21289062 C-91.22545116 297.58442919 -102.03456568 282.33237932 -111.61328125 265.83984375 C-112.19335938 264.89496094 -112.7734375 263.95007813 -113.37109375 262.9765625 C-123.14646503 246.90403344 -130.28698296 229.50228349 -136.61328125 211.83984375 C-136.91862793 211.01081543 -137.22397461 210.18178711 -137.53857422 209.32763672 C-153.4464335 165.98657644 -159.69844202 112.15699364 -148.61328125 66.83984375 C-148.42604492 66.05029297 -148.23880859 65.26074219 -148.04589844 64.44726562 C-141.16178127 36.31631359 -125.38821581 9.66335039 -100.61328125 -6.16015625 C-68.98456602 -25.17494142 -28.82168064 -23.82419939 0 0 Z " transform="translate(160.61328125,218.16015625)" style="fill: #AB6BFD;"></path></svg>